# xmcd
#
# Track frame offsets:
#	183
#	7908
#	22158
#	29383
#	51520
#	58158
#	86883
#	97633
#	103158
#	107133
#	122158
#	129783
#	138058
#	150183
#	156083
#	165858
#	178533
#	188733
#	197058
#	204858
#	209508
#	218233
#	227508
#	235608
#	245733
#	256783
#	265308
#	275283
#	284608
#	289458
#	293883
#	299833
#	305283
#	316208
#
# Disc length: 4549 seconds
#
# Revision: 0
# Processed by: cddbd v1.5.1PL0 Copyright (c) Steve Scherf et al.
# Submitted via: EasyCDDAExtractor 4.6.9.1
#
DISCID=eb11c322
DTITLE=Giuseppe Michele Gala - L'arpa di Viggiano
DYEAR=1991
DGENRE=Musique du monde
TTITLE0=TARANTELLA STIGLIANESE
TTITLE1=PASTORE DI NATALE
TTITLE2=TARANTELLA DI ARMENTO
TTITLE3=ALLA CILENTANA
TTITLE4=TARANTELLA
TTITLE5=ALLA CILENTANA - canzona di lagnanza
TTITLE6=TARANTELLA
TTITLE7=TARANTELLA
TTITLE8=ALLA SAMPUGNARA
TTITLE9=TARANTELLA
TTITLE10=PASTORE DI NATALE
TTITLE11=TARANTELLA
TTITLE12=TARANTELLA
TTITLE13=ARIA NELLA NOTTE
TTITLE14=VALZER A SERENATA
TTITLE15=CANTI AD ARIA - arietta
TTITLE16=CANTI AD ARIA - canto a rampogna
TTITLE17=POLKA
TTITLE18=MAZURKA
TTITLE19=QUADRIGLIA
TTITLE20=QUADRIGLIA ANTICA
TTITLE21=TARANTELLA CAPUANESE
TTITLE22=POLKA DI VITTORIO
TTITLE23=VALZER
TTITLE24=MAZURKA
TTITLE25=MAZURKA
TTITLE26=QUADRIGLIA
TTITLE27=TARANTELLA
TTITLE28=TARANTELLA
TTITLE29=TARASCONE
TTITLE30=TARANTELLA
TTITLE31=QUADRIGLIA
TTITLE32=QUADRIGLIA
TTITLE33=CANZONE A MORTE
EXTD=
EXTT0=
EXTT1=
EXTT2=
EXTT3=
EXTT4=
EXTT5=
EXTT6=
EXTT7=
EXTT8=
EXTT9=
EXTT10=
EXTT11=
EXTT12=
EXTT13=
EXTT14=
EXTT15=
EXTT16=
EXTT17=
EXTT18=
EXTT19=
EXTT20=
EXTT21=
EXTT22=
EXTT23=
EXTT24=
EXTT25=
EXTT26=
EXTT27=
EXTT28=
EXTT29=
EXTT30=
EXTT31=
EXTT32=
EXTT33=
PLAYORDER=
